<?xml version="1.0" encoding="iso-8859-1"?>
<!-- Generator: Adobe Illustrator 18.1.1, SVG Export Plug-In . SVG Version: 6.00 Build 0)  -->
<svg version="1.1" id="Capa_1" xmlns="http://www.w3.org/2000/svg" xmlns:xlink="http://www.w3.org/1999/xlink" x="0px" y="0px"
	 viewBox="0 0 44.552 44.552" style="enable-background:new 0 0 44.552 44.552;" xml:space="preserve">
<g>
	<path d="M43.411,34.805c-0.001-0.419-0.011-0.832-0.028-1.238c-0.686-15.851-10.906-20.996-13.377-22.01L27.69,5.823h10.917
		c0.725,0,1.292-0.651,1.292-1.482V1.478C39.899,0.649,39.332,0,38.607,0H5.944C5.22,0,4.652,0.649,4.652,1.478v2.863
		c0,0.831,0.567,1.482,1.292,1.482h10.58l-2.129,5.512l-0.062,0.021c-0.505,0.166-12.387,4.272-13.165,22.212
		c-0.018,0.406-0.026,0.818-0.027,1.238c-0.041,0.462-0.172,3.13,1.994,5.582c2.441,2.763,6.768,4.164,12.858,4.164H28.56
		c6.09,0,10.416-1.401,12.856-4.164C43.583,37.936,43.452,35.267,43.411,34.805z M6.453,1.8h31.646v2.224H6.453V1.8z M18.454,5.823
		h7.294l2.118,5.243H16.429L18.454,5.823z M40.038,39.229c-2.062,2.305-6.031,3.523-11.478,3.523H15.993
		c-5.448,0-9.418-1.218-11.481-3.523c-1.806-2.018-1.588-4.182-1.578-4.267l0.007-0.111c0-0.409,0.008-0.81,0.025-1.205
		C3.655,17.77,13.471,13.594,14.769,13.11l7.408,0.007l0.01,0.002l6.865-0.006c1.238,0.446,11.85,4.732,12.532,20.532
		c0.018,0.396,0.026,0.797,0.026,1.206l0.007,0.106C41.627,35.046,41.845,37.211,40.038,39.229z"/>
	<path d="M22.409,17.137c-6.301,0-11.427,5.125-11.427,11.425c0,6.301,5.126,11.427,11.427,11.427
		c6.301,0,11.428-5.125,11.428-11.425C33.837,22.263,28.71,17.137,22.409,17.137z M27.527,36.702l-0.398-0.787
		c-0.226-0.443-0.762-0.623-1.21-0.397c-0.443,0.224-0.621,0.766-0.398,1.209l0.399,0.79c-0.76,0.299-1.564,0.507-2.403,0.603
		l-0.02-0.888c-0.011-0.497-0.441-0.883-0.92-0.879c-0.497,0.011-0.891,0.423-0.879,0.92l0.02,0.882
		c-0.844-0.06-1.657-0.228-2.427-0.493l0.364-0.808c0.204-0.454,0.002-0.986-0.451-1.19c-0.455-0.204-0.986-0.001-1.189,0.451
		l-0.363,0.806c-0.722-0.413-1.388-0.913-1.978-1.492l0.677-0.572c0.38-0.321,0.427-0.889,0.106-1.269
		c-0.322-0.381-0.891-0.426-1.269-0.106l-0.676,0.571c-0.471-0.675-0.851-1.415-1.138-2.2l0.854-0.222
		c0.482-0.125,0.771-0.616,0.646-1.097c-0.125-0.481-0.621-0.766-1.097-0.645l-0.858,0.222c-0.082-0.505-0.136-1.02-0.136-1.549
		c0-0.313,0.018-0.622,0.047-0.928l0.877,0.169c0.058,0.011,0.115,0.017,0.172,0.017c0.423,0,0.8-0.299,0.883-0.729
		c0.094-0.488-0.225-0.96-0.713-1.055l-0.874-0.169c0.235-0.805,0.576-1.562,1.001-2.265l0.709,0.524
		c0.161,0.119,0.349,0.176,0.534,0.176c0.276,0,0.548-0.126,0.725-0.365c0.296-0.4,0.211-0.963-0.188-1.259l-0.709-0.524
		c0.552-0.617,1.178-1.166,1.871-1.624l0.417,0.784c0.161,0.304,0.473,0.477,0.795,0.477c0.143,0,0.287-0.034,0.422-0.106
		c0.438-0.234,0.605-0.779,0.371-1.217l-0.419-0.788c0.877-0.368,1.821-0.607,2.806-0.698v0.89c0,0.497,0.403,0.9,0.9,0.9
		c0.497,0,0.9-0.403,0.9-0.9v-0.891c0.843,0.079,1.65,0.273,2.416,0.555l-0.381,0.796c-0.215,0.449-0.025,0.986,0.423,1.201
		c0.126,0.06,0.258,0.088,0.388,0.088c0.336,0,0.658-0.189,0.812-0.512l0.381-0.795c0.712,0.428,1.367,0.939,1.944,1.531
		l-0.688,0.556c-0.386,0.312-0.446,0.879-0.133,1.266c0.178,0.22,0.438,0.334,0.7,0.334c0.198,0,0.398-0.065,0.565-0.2l0.689-0.557
		c0.456,0.684,0.82,1.432,1.09,2.224l-0.861,0.205c-0.483,0.115-0.782,0.6-0.666,1.084c0.098,0.414,0.467,0.692,0.874,0.692
		c0.069,0,0.14-0.008,0.21-0.025l0.858-0.204c0.062,0.44,0.105,0.887,0.105,1.344c0,0.385-0.029,0.762-0.073,1.135l-0.868-0.187
		c-0.482-0.102-0.965,0.205-1.069,0.69c-0.104,0.486,0.204,0.964,0.69,1.069l0.873,0.188c-0.253,0.799-0.613,1.548-1.053,2.242
		l-0.699-0.538c-0.393-0.303-0.959-0.229-1.262,0.164c-0.304,0.394-0.23,0.959,0.164,1.262l0.695,0.535
		C28.869,35.729,28.229,36.259,27.527,36.702z"/>
	<path d="M21.292,28.012c0,0.618,0.5,1.12,1.119,1.12c0.146,0,0.285-0.03,0.413-0.08c1.048-0.904,4.964-5.028,4.964-5.028
		s-5.557,2.938-6.193,3.329C21.296,27.505,21.292,27.906,21.292,28.012z"/>
</g>
<g>
</g>
<g>
</g>
<g>
</g>
<g>
</g>
<g>
</g>
<g>
</g>
<g>
</g>
<g>
</g>
<g>
</g>
<g>
</g>
<g>
</g>
<g>
</g>
<g>
</g>
<g>
</g>
<g>
</g>
</svg>
